<svg width="385" height="328" viewBox="0 0 385 328" fill="none" xmlns="http://www.w3.org/2000/svg">
<path d="M129 188.5C128.6 188.1 43.1667 262.333 0.5 299.5V328H156C176.4 305.2 196.167 281.167 203.5 272C228.3 272.4 287.167 250.167 313.5 239L342 227.5C349.5 225.5 363.8 218.4 361 206C358.2 193.6 347.167 192.167 342 193L293 197.5C289.333 197.833 281.8 198.3 281 197.5C280.2 196.7 291.333 183.833 297 177.5C297.667 176.667 300.7 173.1 307.5 165.5C314.3 157.9 321 152.333 323.5 150.5L349 127.5L367 110C370 107.5 376.8 101.8 380 99C383.2 96.2 384 92.8333 384 91.5C384.333 89 383.6 82.7 378 77.5C372.4 72.3 364.667 75.3333 361.5 77.5L347 88L325 103.5C320.5 106.667 309 114.8 299 122C289 129.2 285.167 131.333 284.5 131.5L299 110L317.5 82L341.5 48L344 43.5C345.667 40.3333 347.1 32.3 339.5 25.5C331.9 18.7 322.667 24.6667 319 28.5L302.5 50C296.5 57.6667 283.8 73.9 281 77.5C278.2 81.1 263.5 99.3333 256.5 108C259.3 99.6 269.667 76.8333 274.5 66.5L279.5 55.5L292.5 27L295.5 20C297 15 297.4 4.3 287 1.5C276.6 -1.3 270 6.33333 268 10.5C264.333 17.5 254.6 36 245 54C235.4 72 227.333 87.8333 224.5 93.5L221.5 100V96.5V89.5C221.5 86.3 222.167 80.1667 222.5 77.5L223.5 65.5L224.5 56.5L226 45L227 34L227.5 27V22C227.5 18.5 226.5 16 225.5 13.5C224.5 11 222.5 10.5 222 9.5C221.5 8.5 217.5 8.5 214.5 8.5H211.5C211 8.66666 209.7 9.3 208.5 10.5C207.3 11.7 206.333 13 206 13.5C205.833 14 205.3 16 204.5 20C203.7 24 203.167 26.3333 203 27L202 31C201.667 31.8333 200.3 35.9 197.5 45.5C194.7 55.1 192.333 67.8333 191.5 73C191.167 73.8333 190.1 77.5 188.5 85.5C186.5 93.5 185.667 95.8333 185.5 96C184.333 97.5 181.4 101.3 179 104.5C176.6 107.7 174.333 110.833 173.5 112L164.5 124C163.833 124.833 160.2 129.8 151 143C141.8 156.2 135.5 171.5 133.5 177.5L130.5 185C130.167 186.333 129.4 188.9 129 188.5Z" fill="#F5A36B"/>
<path d="M207 97L296.5 146.5" stroke="#2C2A2A" stroke-width="3" stroke-linecap="round"/>
<path d="M188.5 214.5C199.167 202.5 232.6 182.1 281 196.5" stroke="#2C2A2A" stroke-width="3" stroke-linecap="round"/>
<path d="M61 224.5C60.1629 224.5 55.0007 220.211 49.051 215M49.051 215C43.6289 210.251 37.5528 204.735 33.5 201C34.6667 198.333 38.7 193 45.5 193C48.6667 193 55.2 195.4 56 205C54.8673 208.667 51.8918 215.8 49.051 215Z" stroke="#2C2A2A" stroke-width="4.5" stroke-linecap="round"/>
<path d="M78.5 211.5L70 197.138M92 193C90.8 191.8 89.5 190.5 89 190L82 185.625M70 197.138L64 187C60.8333 181 58.2 171.2 73 180L82 185.625M70 197.138L82 185.625" stroke="#2C2A2A" stroke-width="4.5" stroke-linecap="round"/>
<path d="M103.5 180C101.928 177.992 98.5185 174.328 93.5 170.03M93.5 170.03C88.9382 166.122 83.0473 161.69 76 157.5C77.3333 151.167 83.4 140.6 97 149C99.5 152.187 102.3 160.854 93.5 170.03Z" stroke="#2C2A2A" stroke-width="4.5" stroke-linecap="round"/>
<path d="M108.5 124.5C107.667 126 105.1 130 101.5 134C103.364 136.257 107.296 140.5 112.5 145.16M133.5 140C134.7 140.8 128.333 150.333 125 155C120.393 151.874 116.136 148.415 112.5 145.16M112.5 145.16C114.333 143.773 118.7 138.9 121.5 130.5" stroke="#2C2A2A" stroke-width="4.5" stroke-linecap="round"/>
<path d="M142.5 123L130.357 114.5M130.357 114.5L122.5 109C120.167 107.333 116.9 102.6 122.5 97C127 92 135.6 86.1 134 102.5C133.905 104.333 133.043 109.3 130.357 114.5ZM130.357 114.5L153 110" stroke="#2C2A2A" stroke-width="4.5" stroke-linecap="round"/>
</svg>
