<svg width="179" height="59" viewBox="0 0 179 59" fill="none" xmlns="http://www.w3.org/2000/svg">
<path d="M18.1103 44.1347C17.559 43.5048 17.3867 36.7958 17.3903 28.8865M17.3903 28.8865C17.3935 21.6785 17.5428 13.4736 17.6845 7.96406C20.4596 7.08587 27.1293 6.60879 31.6074 11.726C33.6929 14.109 36.1893 20.6061 29.4919 27.5303C25.9867 29.0926 18.6591 31.5511 17.3903 28.8865Z" stroke="#2C2A2A" stroke-width="4.5" stroke-linecap="round"/>
<path d="M39.4179 48.7429L44.6282 32.8881M62.2303 46.7188C62.3431 45.0255 62.4652 43.191 62.5122 42.4855L61.1947 34.3366M44.6282 32.8881L48.3059 21.6965C50.7357 15.3622 56.3763 6.92667 59.5007 23.8594L61.1947 34.3366M44.6282 32.8881L61.1947 34.3366" stroke="#2C2A2A" stroke-width="4.5" stroke-linecap="round"/>
<path d="M79.5866 46.8117C80.0628 44.3067 80.5741 39.3279 80.5039 32.7204M80.5039 32.7204C80.4402 26.7143 79.896 19.3624 78.4083 11.2996C84.0524 8.13209 95.9994 5.73872 98.6345 21.505C97.8829 25.4849 93.2046 33.2997 80.5039 32.7204Z" stroke="#2C2A2A" stroke-width="4.5" stroke-linecap="round"/>
<path d="M124.645 14.0245C122.967 14.3853 118.267 15.088 112.886 15.0131C112.415 17.902 111.811 23.6554 111.732 30.6401M129.445 43.0455C129.633 44.4753 118.266 45.9624 112.559 46.5272C111.877 41.0018 111.677 35.5204 111.732 30.6401M111.732 30.6401C113.983 31.1067 120.526 31.1836 128.691 27.7588" stroke="#2C2A2A" stroke-width="4.5" stroke-linecap="round"/>
<path d="M148.165 38.6228L146.564 23.8872M146.564 23.8872L145.529 14.3524C145.247 11.4989 146.657 5.92346 154.559 6.44973C161.285 6.54335 171.389 9.12966 157.994 18.7259C156.551 19.8616 152.246 22.4838 146.564 23.8872ZM146.564 23.8872L164.862 37.9632" stroke="#2C2A2A" stroke-width="4.5" stroke-linecap="round"/>
</svg>
