<svg width="143" height="51" viewBox="0 0 143 51" fill="none" xmlns="http://www.w3.org/2000/svg">
<path d="M13.4828 41.5612C13.7855 38.914 14.235 33.2008 14.499 25.2749M14.499 25.2749C14.6938 19.4256 14.7876 12.3711 14.6469 4.45468C18.7479 3.01577 27.3043 2.93161 28.7217 14.1062C29.1646 17.5982 24.2421 23.6131 14.499 25.2749ZM14.499 25.2749C19.3004 23.3461 29.5755 23.9992 32.265 42.0426" stroke="#2C2A2A" stroke-width="4.5" stroke-linecap="round"/>
<path d="M45.9253 28.3901C44.6248 18.475 52.0256 13.6919 55.8333 13.6564C61.2729 13.6057 65.6071 19.7369 66.5581 23.1422C68.8675 31.4121 61.1602 35.7109 57.6208 36.3567C49.3756 36.4861 46.3883 31.0996 45.9253 28.3901Z" stroke="#2C2A2A" stroke-width="4.5" stroke-linecap="round"/>
<path d="M95.4849 13.1553C90.9446 14.4233 81.13 22.7437 83.5803 32.044C85.7387 38.1955 90.0097 44.1829 101.317 40.0856" stroke="#2C2A2A" stroke-width="4.5" stroke-linecap="round"/>
<path d="M117.124 10.196C117.266 13.0278 117.367 20.5106 116.954 31.5722M116.382 43.2936C116.636 39.0415 116.821 35.1225 116.954 31.5722M116.954 31.5722C121.61 29.5251 131.516 24.2961 133.89 19.7568M116.954 31.5722C121.035 33.6011 130.666 38.7615 136.537 43.1713" stroke="#2C2A2A" stroke-width="4.5" stroke-linecap="round"/>
</svg>
