<svg width="349" height="286" viewBox="0 0 349 286" fill="none" xmlns="http://www.w3.org/2000/svg">
<path d="M101.5 173.5C101.1 174.3 210 248.833 264.5 286H348.5V175.5C278.5 139.1 197.333 101.667 165.5 87.5C154.7 64.7 146.667 48.6667 144 43.5C141.6 38.3 137 28.6667 135 24.5C130.2 14.9 126 10.8333 124.5 9.99998C123.833 9.33332 120.3 7.19998 111.5 3.99998C102.7 0.799985 96.1667 0.33332 94 0.499988C86.4 -0.300012 73.5 12.1667 68 18.5H51C49 18.5 43.9 18.6 39.5 19C35.1 19.4 31.3333 20.1667 30 20.5C25.6667 22.1667 16.6 27.9 15 37.5C13.4 47.1 12.6667 51.1667 12.5 52C8.9 74.8 4 100.167 2 110C-1.2 121.6 1.33333 130.5 3 133.5C2 134.5 22.5 160 25 163.5C27 166.3 31.8333 168.667 34 169.5C56 171.9 88.1667 173.167 101.5 173.5Z" fill="#F5A36B"/>
<path d="M4.5 108L32.5 132C34.6667 133.333 40.2 135.8 45 135L86 132" stroke="#2C2A2A" stroke-width="3" stroke-linecap="round"/>
<path d="M9.5 81.5C18.1667 88.3333 36.5 102 40.5 102C45.5 102 59.5 103 89 102" stroke="#2C2A2A" stroke-width="3" stroke-linecap="round"/>
<path d="M13.5 53.5C16.3333 55.3333 26 60.7 42 67.5C45.1667 67.8333 59.9 68.6 93.5 69" stroke="#2C2A2A" stroke-width="3" stroke-linecap="round"/>
<path d="M96 56L86.5 143C85.8333 147.5 82 156.9 72 158.5L37.5 165.5" stroke="#2C2A2A" stroke-width="3" stroke-linecap="round"/>
<path d="M76 9.49998L59 29C56.3333 32.5 53 41.3 61 48.5C69 55.7 76.5 51 82.5 46.5L93 39.5L98 65C99.5 71 103.9 84.4 109.5 90C112.333 94 121.5 104.2 135.5 113L153.5 123" stroke="#2C2A2A" stroke-width="3" stroke-linecap="round"/>
<path d="M185 75C186.343 72.6985 189.053 67.6493 192.485 60.5M192.485 60.5C195.018 55.2237 197.943 48.8036 201 41.5C205.333 41.8333 213.2 45.2 210 56C209 59.375 202.073 62.9 192.485 60.5ZM192.485 60.5C197.657 60.6667 206.8 65.4 202 83" stroke="#2C2A2A" stroke-width="4.5" stroke-linecap="round"/>
<path d="M220 76C222.8 66.4 231.5 65 235 66.5C240 68.6428 241.5 76 241 79.5C239.786 88 231 88.8333 227.5 88C219.9 84.8 219.333 78.6666 220 76Z" stroke="#2C2A2A" stroke-width="4.5" stroke-linecap="round"/>
<path d="M271.5 82C266.833 81.3333 254.5 85 253 94.5C252.5 101 254 108.2 266 109" stroke="#2C2A2A" stroke-width="4.5" stroke-linecap="round"/>
<path d="M292.5 88C291.491 90.6496 288.571 97.54 283.741 107.5M278.5 118C280.444 114.21 282.191 110.697 283.741 107.5M283.741 107.5C288.827 107.5 300 106.7 304 103.5M283.741 107.5C286.661 111 293.4 119.6 297 126" stroke="#2C2A2A" stroke-width="4.5" stroke-linecap="round"/>
</svg>
