<svg width="244" height="45" viewBox="0 0 244 45" fill="none" xmlns="http://www.w3.org/2000/svg">
<path d="M29.0852 7.39539C27.6455 4.94937 23.4101 1.08722 17.9852 5.20677C15.5919 7.02422 15.5376 12.8683 20.6577 19.0671C22.8978 21.779 23.8596 26.398 20.2719 30.1622C17.0914 33.499 15.0102 33.0887 12.9289 32.6783C9.87543 31.7159 5.81746 28.5374 6.80234 23.5424" stroke="#2C2A2A" stroke-width="4.5" stroke-linecap="round"/>
<path d="M57.5339 8.80648C52.7721 8.58831 37.4397 13.8535 38.4316 21.6166C38.7247 27.4402 44.1879 37.3822 55.9366 33.3564" stroke="#2C2A2A" stroke-width="4.5" stroke-linecap="round"/>
<path d="M78.4783 8.41361L75.2248 35.8802" stroke="#2C2A2A" stroke-width="4.5" stroke-linecap="round"/>
<path d="M113.444 6.6683C110.99 5.10332 104.893 3.25241 100.136 8.36861C98.7372 9.87337 98.6266 14.1971 105.984 17.0893C109.528 18.4823 110.5 25.2588 104.074 28.6045C97.6487 31.9502 94.6417 27.7057 93.9414 25.1652" stroke="#2C2A2A" stroke-width="4.5" stroke-linecap="round"/>
<path d="M139.797 12.2607C136.512 11.2527 129.197 10.459 126.215 15.3485C125.709 16.0895 126.14 18.2886 131.917 21.1574C134.138 22.0758 138.555 24.7726 138.454 28.212C138.352 31.6515 132.324 34.9314 129.323 36.1414C128.261 36.6527 125.192 36.9847 121.413 34.2214" stroke="#2C2A2A" stroke-width="4.5" stroke-linecap="round"/>
<path d="M156.354 27.4623C151.899 20.818 154.654 14.1541 156.589 11.6526C162.674 5.64529 169.576 10.9701 172.266 14.3835C176.386 19.8084 173.82 24.7799 172.022 26.5876C168.656 29.6476 160.81 34.1066 156.354 27.4623Z" stroke="#2C2A2A" stroke-width="4.5" stroke-linecap="round"/>
<path d="M189.913 38.2323L190.127 25.0853M190.127 25.0853L190.27 16.3206C190.219 14.7491 191.477 11.6578 196.914 11.8649C199.689 12.4121 202.944 16.0088 200.407 21.5627C199.405 23.7572 197.96 24.9455 196.432 25.5097M190.127 25.0853C191.561 25.7748 194.093 26.3734 196.432 25.5097M196.432 25.5097C198.368 27.7979 203.433 32.8981 208.21 34.993" stroke="#2C2A2A" stroke-width="4.5" stroke-linecap="round"/>
<path d="M231.142 4.75791C228.369 4.81168 222.521 6.44547 221.317 12.5505C221.135 13.4755 221.053 17.5435 228.543 17.9392C231.688 18.4391 237.26 20.8831 234.391 26.6598C231.522 32.4365 225.532 32.6007 222.895 31.9608" stroke="#2C2A2A" stroke-width="4.5" stroke-linecap="round"/>
</svg>
