<svg width="312" height="333" viewBox="0 0 312 333" fill="none" xmlns="http://www.w3.org/2000/svg">
<path d="M147.5 105.5C158.7 63.9 172.833 17.8333 178.5 0L311.5 0.5C297.1 20.5 255.5 86.5 236.5 117C244.1 130.2 243 143.5 241.5 148.5C233.1 179.7 231.667 188.5 232 189C244.8 191 244.667 201.833 243 207L239.5 216.5C237.5 221 233.833 231.167 232 237.5C231.833 240.167 229.4 245.8 221 247C212.6 248.2 205.5 244.833 203 243C195.8 249.8 188.333 248.5 185.5 247L164.5 239.5L137 321.5C135.833 325.833 130.8 334.1 120 332.5C109.2 330.9 108.5 320.167 109.5 315L126 210.5L48 268.5C44.3333 270.5 35.4 272.7 29 265.5C22.6 258.3 28.6667 249.167 32.5 245.5L108 172.5C122.8 146.5 140.5 117 147.5 105.5Z" fill="#F5A36B"/>
<path d="M112 184.5L155 219.5" stroke="#2C2A2A" stroke-width="3" stroke-linecap="round"/>
<path d="M150.5 144L170.5 159.5L191 219.5C192.667 223.667 198.3 231.6 207.5 230C216.7 228.4 219 222 219 217L215.5 153L223.5 131.5" stroke="#2C2A2A" stroke-width="3" stroke-linecap="round"/>
<path d="M160 224L184.5 204M201 244L213 228M218.5 220L231 201C232.833 197.5 235.1 189.1 229.5 183.5C223.9 177.9 218.833 178.833 217 180" stroke="#2C2A2A" stroke-width="3"/>
<path d="M11 193C8.16667 192.833 2.60001 194.2 3.00001 201C3.17648 204 8.00001 207.3 16 206.5C19.5 206.15 23.872 207.924 25 213C26 217.5 24.5 219 23 220.5C20.5 222.5 15.6 224.1 12 220.5" stroke="#2C2A2A" stroke-width="4.5" stroke-linecap="round"/>
<path d="M33 173.5C30.1667 177.333 26 193 33 196.5C38 199.5 49.3 200.5 52.5 188.5" stroke="#2C2A2A" stroke-width="4.5" stroke-linecap="round"/>
<path d="M46 157L67 175" stroke="#2C2A2A" stroke-width="4.5" stroke-linecap="round"/>
<path d="M71.5 132C68.8333 133.167 63.9 137.2 65.5 144C65.9706 146 69.5 148.5 76 144C79.1308 141.833 85.3 144.8 84.5 152C83.7 159.2 78.5 159.333 76 158.5" stroke="#2C2A2A" stroke-width="4.5" stroke-linecap="round"/>
<path d="M87.5 111C84.8333 113.167 80.1 118.8 82.5 124C82.8333 124.833 84.9 125.7 90.5 122.5C92.5 121.167 97.2 119 100 121C102.8 123 102.167 129.833 101.5 133C101.333 134.167 99.9 136.9 95.5 138.5" stroke="#2C2A2A" stroke-width="4.5" stroke-linecap="round"/>
<path d="M113.5 108.5C105.5 108.5 101.5 102.5 100.5 99.5C98.9 91.1 107.167 88.3333 111.5 88C118.3 87.6 121 92.5 121.5 95C122.167 99.5 121.5 108.5 113.5 108.5Z" stroke="#2C2A2A" stroke-width="4.5" stroke-linecap="round"/>
<path d="M132 80.5L121.2 73M121.2 73L114 68C112.667 67.1667 110.8 64.4 114 60C116 58 120.8 57.3 124 62.5C125.264 64.5547 125.446 66.4168 125.064 68M121.2 73C122.571 72.1935 124.479 70.4236 125.064 68M125.064 68C128.043 67.6667 135.1 66.3 139.5 63.5" stroke="#2C2A2A" stroke-width="4.5" stroke-linecap="round"/>
<path d="M125.5 26.5C124 28.8333 122.1 34.6 126.5 39C127.167 39.6667 130.5 42 135 36C137.167 33.6667 142.3 30.4 145.5 36C148.7 41.6 145.5 46.6667 143.5 48.5" stroke="#2C2A2A" stroke-width="4.5" stroke-linecap="round"/>
</svg>
