<svg width="354" height="207" viewBox="0 0 354 207" fill="none" xmlns="http://www.w3.org/2000/svg">
<path d="M179.303 148.283C176.034 145.82 168.257 143.016 163.307 151.502C161.123 155.246 164.281 163.061 174.528 168.489C179.011 170.864 182.845 176.486 180.146 183.483C177.753 189.686 174.754 190.29 171.755 190.893C167.155 191.299 159.992 189.308 158.544 182.109" stroke="#2C2A2A" stroke-width="10.5" stroke-linecap="round"/>
<path d="M222.055 151.962C215.213 151.288 192.732 157.713 193.574 168.969C193.556 177.379 200.673 192.111 217.899 187.201" stroke="#2C2A2A" stroke-width="10.5" stroke-linecap="round"/>
<path d="M228.999 168.859C233.038 155.013 245.585 152.994 250.633 155.157C257.845 158.248 260.008 168.859 259.287 173.907C257.536 186.166 244.864 187.368 239.816 186.166C228.855 181.551 228.038 172.705 228.999 168.859Z" stroke="#2C2A2A" stroke-width="10.5" stroke-linecap="round"/>
<path d="M277.318 190.607L274.493 170.8M274.493 170.8L272.665 157.984C272.154 154.147 273.805 146.561 284.49 146.914C293.568 146.736 307.316 149.768 289.678 163.32C287.784 164.917 282.095 168.65 274.493 170.8ZM274.493 170.8L299.815 188.962" stroke="#2C2A2A" stroke-width="10.5" stroke-linecap="round"/>
<path d="M332.701 147.387C330.584 147.842 324.655 148.729 317.867 148.634C317.273 152.278 316.511 159.536 316.411 168.348M338.755 183.997C338.993 185.801 324.653 187.677 317.454 188.389C316.594 181.419 316.341 174.504 316.411 168.348M316.411 168.348C319.25 168.936 327.504 169.033 337.805 164.713" stroke="#2C2A2A" stroke-width="10.5" stroke-linecap="round"/>
<path d="M241.467 81.7557L244.373 53.2069M279.034 69.9469C278.599 67.0615 278.128 63.9355 277.947 62.7332L272.73 49.5328M244.373 53.2069L246.424 33.0549C248.17 21.5206 254.534 5.27387 266.023 32.5608L272.73 49.5328M244.373 53.2069L272.73 49.5328" stroke="#2C2A2A" stroke-width="10.5" stroke-linecap="round"/>
<path d="M147.953 39.1209C144.298 38.4996 136.212 39.1858 133.108 46.9016C132.638 48.0707 131.516 53.3919 141.252 55.78C145.256 57.221 151.963 61.8203 146.755 68.6897C141.547 75.559 133.64 74.2801 130.338 72.7819" stroke="#2C2A2A" stroke-width="10.5" stroke-linecap="round"/>
<path d="M129 5.5C130.167 9.33333 131.4 17.9 127 21.5" stroke="#2C2A2A" stroke-width="10.5" stroke-linecap="round"/>
<path d="M53.5159 37.3678L57.4155 69.2919" stroke="#2C2A2A" stroke-width="10.5" stroke-linecap="round"/>
<circle cx="52.7177" cy="24.6265" r="3.40857" transform="rotate(28.6909 52.7177 24.6265)" fill="#2C2A2A"/>
<path d="M70 23.5C74.9566 23.2041 82.2315 22.698 89 22.0867M106.5 19.5C105.165 20.3898 97.4801 21.3208 89 22.0867M89 22.0867C92 38.0578 96.9 70.8 92.5 74" stroke="#2C2A2A" stroke-width="10.5" stroke-linecap="round"/>
<path d="M105.562 150.93C98.3018 151.551 83.6392 153.239 83.0729 155.019C82.7308 156.095 83.9676 165.659 85.4306 175.775M113.485 193.089C114.666 198.077 97.1314 195.863 88.2166 194.132C87.4446 189.265 86.389 182.402 85.4306 175.775M85.4306 175.775C89.286 175.714 98.3033 175.201 103.529 173.634" stroke="#2C2A2A" stroke-width="10.5" stroke-linecap="round"/>
<path d="M59.5159 169.368L63.4155 201.292" stroke="#2C2A2A" stroke-width="10.5" stroke-linecap="round"/>
<circle cx="58.7177" cy="156.626" r="3.40857" transform="rotate(28.6909 58.7177 156.626)" fill="#2C2A2A"/>
<path d="M6 146C10.9566 145.704 18.2315 145.198 25 144.587M42.5 142C41.1653 142.89 33.4801 143.821 25 144.587M25 144.587C28 160.558 32.9 193.3 28.5 196.5" stroke="#2C2A2A" stroke-width="10.5" stroke-linecap="round"/>
</svg>
