<svg width="344" height="341" viewBox="0 0 344 341" fill="none" xmlns="http://www.w3.org/2000/svg">
<path d="M266 222.262C267.905 223.087 271.867 223.912 272.476 220.612C273.086 217.312 272.73 215.662 272.476 215.25C272.171 213.93 269.81 214.15 268.667 214.425C268.032 214.562 266.914 214.342 267.524 212.362C268.133 210.382 267.778 208.513 267.524 207.825L274 207" stroke="#2C2A2A" stroke-width="4.5" stroke-linecap="round"/>
<path d="M259 205C256.6 210.539 251.44 221.892 250 223" stroke="#2C2A2A" stroke-width="4.5" stroke-linecap="round"/>
<path d="M266 249.262C267.905 250.087 271.867 250.912 272.476 247.612C273.086 244.312 272.73 242.662 272.476 242.25C272.171 240.93 269.81 241.15 268.667 241.425C268.032 241.562 266.914 241.342 267.524 239.362C268.133 237.382 267.778 235.512 267.524 234.825L274 234" stroke="#2C2A2A" stroke-width="4.5" stroke-linecap="round"/>
<path d="M259 232C256.6 237.538 251.44 248.892 250 250" stroke="#2C2A2A" stroke-width="4.5" stroke-linecap="round"/>
<path d="M93.6191 47.0398C97.5116 51.7605 106.142 72.6738 121.409 71.3149M126.55 36.5674C127.254 51.8476 121.283 93.5238 107.607 94.8466" stroke="#2C2A2A" stroke-width="10.5" stroke-linecap="round"/>
<path d="M138.508 66.6125C138.977 55.2602 148.19 51.3422 152.46 52.0416C158.559 53.0408 162.221 60.746 162.625 64.7427C163.605 74.449 154.142 77.7654 150.054 77.8013C140.799 76.3456 138.5 69.7355 138.508 66.6125Z" stroke="#2C2A2A" stroke-width="10.5" stroke-linecap="round"/>
<path d="M177.815 45.8432C175.931 53.2308 174.545 69.569 184.075 75.821C193.606 82.073 197.221 77.8344 200.446 73.1237C202.371 69.2121 208.028 59.2697 202.207 46.2401" stroke="#2C2A2A" stroke-width="10.5" stroke-linecap="round"/>
<path d="M166.679 209.335C165.784 208.661 163.656 207.894 162.301 210.216C161.704 211.241 162.568 213.379 165.372 214.865C166.599 215.515 167.648 217.053 166.91 218.968C166.255 220.665 165.434 220.831 164.613 220.996C163.354 221.107 161.394 220.562 160.998 218.592" stroke="#2C2A2A" stroke-width="3.5" stroke-linecap="round"/>
<path d="M178.378 210.342C176.506 210.158 170.354 211.916 170.584 214.996C170.579 217.298 172.527 221.329 177.241 219.985" stroke="#2C2A2A" stroke-width="3.5" stroke-linecap="round"/>
<path d="M180.279 214.966C181.384 211.177 184.818 210.624 186.199 211.217C188.172 212.062 188.764 214.966 188.567 216.347C188.088 219.702 184.62 220.031 183.239 219.702C180.239 218.439 180.015 216.019 180.279 214.966Z" stroke="#2C2A2A" stroke-width="3.5" stroke-linecap="round"/>
<path d="M193.501 220.918L192.728 215.497M192.728 215.497L192.228 211.99C192.088 210.94 192.54 208.864 195.464 208.961C197.948 208.912 201.71 209.742 196.884 213.45C196.365 213.887 194.808 214.909 192.728 215.497ZM192.728 215.497L199.658 220.467" stroke="#2C2A2A" stroke-width="3.5" stroke-linecap="round"/>
<path d="M208.657 209.09C208.078 209.215 206.455 209.457 204.598 209.431C204.435 210.429 204.227 212.415 204.199 214.826M210.314 219.109C210.379 219.602 206.455 220.116 204.485 220.311C204.249 218.403 204.18 216.511 204.199 214.826M204.199 214.826C204.976 214.987 207.235 215.014 210.054 213.831" stroke="#2C2A2A" stroke-width="3.5" stroke-linecap="round"/>
<path d="M166.043 238.585C165.148 237.911 163.02 237.144 161.665 239.466C161.068 240.491 161.932 242.629 164.736 244.115C165.963 244.765 167.012 246.303 166.274 248.218C165.619 249.915 164.798 250.081 163.977 250.246C162.719 250.357 160.759 249.812 160.362 247.842" stroke="#2C2A2A" stroke-width="3.5" stroke-linecap="round"/>
<path d="M177.742 239.592C175.87 239.408 169.718 241.166 169.948 244.246C169.943 246.548 171.891 250.579 176.605 249.235" stroke="#2C2A2A" stroke-width="3.5" stroke-linecap="round"/>
<path d="M179.643 244.216C180.748 240.427 184.182 239.874 185.563 240.467C187.536 241.312 188.129 244.216 187.931 245.597C187.452 248.952 183.984 249.281 182.603 248.952C179.603 247.689 179.38 245.269 179.643 244.216Z" stroke="#2C2A2A" stroke-width="3.5" stroke-linecap="round"/>
<path d="M192.865 250.168L192.092 244.747M192.092 244.747L191.592 241.24C191.452 240.19 191.904 238.114 194.828 238.211C197.312 238.162 201.074 238.992 196.248 242.7C195.729 243.137 194.173 244.159 192.092 244.747ZM192.092 244.747L199.022 249.717" stroke="#2C2A2A" stroke-width="3.5" stroke-linecap="round"/>
<path d="M208.021 238.34C207.442 238.465 205.819 238.707 203.962 238.681C203.799 239.679 203.591 241.665 203.563 244.076M209.678 248.359C209.743 248.852 205.819 249.366 203.849 249.561C203.614 247.653 203.544 245.761 203.563 244.076M203.563 244.076C204.34 244.237 206.599 244.264 209.418 243.081" stroke="#2C2A2A" stroke-width="3.5" stroke-linecap="round"/>
<path d="M141.018 220.153L140.304 215.145M140.304 215.145L139.842 211.904C139.713 210.934 140.13 209.016 142.832 209.105C145.127 209.06 148.603 209.827 144.143 213.253C143.664 213.657 142.226 214.601 140.304 215.145ZM140.304 215.145L146.706 219.737" stroke="#2C2A2A" stroke-width="3.5" stroke-linecap="round"/>
<path d="M100.3 212.204C101.608 213.791 104.51 220.823 109.643 220.366M111.372 208.683C111.609 213.821 109.601 227.833 105.003 228.278" stroke="#2C2A2A" stroke-width="3.5" stroke-linecap="round"/>
<path d="M115.393 218.785C115.55 214.968 118.648 213.651 120.084 213.886C122.135 214.222 123.366 216.813 123.501 218.156C123.831 221.42 120.649 222.535 119.275 222.547C116.163 222.058 115.39 219.835 115.393 218.785Z" stroke="#2C2A2A" stroke-width="3.5" stroke-linecap="round"/>
<path d="M127.94 213.024C127.419 215.068 127.035 219.588 129.672 221.318C132.309 223.048 133.309 221.875 134.202 220.572C134.734 219.489 136.299 216.739 134.689 213.134" stroke="#2C2A2A" stroke-width="3.5" stroke-linecap="round"/>
<path d="M87.7594 254.932L88.3872 248.764M95.8758 252.381C95.7818 251.758 95.6801 251.082 95.6409 250.822L94.5138 247.97M88.3872 248.764L88.8304 244.41C89.2076 241.918 90.5825 238.408 93.0647 244.304L94.5138 247.97M88.3872 248.764L94.5138 247.97" stroke="#2C2A2A" stroke-width="3.5" stroke-linecap="round"/>
<path d="M84.2869 253.901C83.0336 249.886 80.2717 242.049 79.2508 242.825C78.2298 243.601 77.7832 247.707 77.6876 249.663C77.612 250.115 77.2849 250.738 76.5815 249.617C75.8781 248.497 74.9151 244.605 74.5216 242.798C74.2887 242.249 73.7664 241.489 73.5396 242.843C73.3127 244.197 71.8133 251.209 71.092 254.545" stroke="#2C2A2A" stroke-width="3.5" stroke-linecap="round"/>
<path d="M107.026 240.995C105.154 240.81 99.0015 242.568 99.2319 245.649C99.227 247.95 101.175 251.982 105.889 250.638" stroke="#2C2A2A" stroke-width="3.5" stroke-linecap="round"/>
<path d="M123.632 242.952L124.716 251.83" stroke="#2C2A2A" stroke-width="3.5" stroke-linecap="round"/>
<circle cx="123.02" cy="239.142" r="1.36532" transform="rotate(28.6909 123.02 239.142)" fill="#2C2A2A"/>
<path d="M148.145 240.115C146.208 240.281 142.294 240.731 142.143 241.206C142.052 241.493 142.382 244.046 142.772 246.746M150.26 251.367C150.575 252.698 145.895 252.107 143.516 251.645C143.31 250.346 143.028 248.514 142.772 246.746M142.772 246.746C143.801 246.729 146.208 246.593 147.603 246.174" stroke="#2C2A2A" stroke-width="3.5" stroke-linecap="round"/>
<path d="M111.465 239.86C111.265 241.608 111.028 244.292 110.939 246.855M111.465 253.531C110.927 252.455 110.839 249.731 110.939 246.855M110.939 246.855C112.386 247.279 116.06 247.554 116.823 246.537M116.234 239.86C116.764 244.417 117.505 253.531 116.234 253.531" stroke="#2C2A2A" stroke-width="3.5" stroke-linecap="round"/>
<path d="M130.2 252.679C129.483 251.729 129.257 243.68 129.303 240.885C129.331 239.963 129.57 238.641 130.299 240.732C131.029 242.822 133.802 249.133 135.097 252.027C135.375 252.29 135.958 252.588 136.063 251.675C136.167 250.761 135.815 243.656 135.625 240.218" stroke="#2C2A2A" stroke-width="3.5" stroke-linecap="round"/>
<path d="M244.793 166.04C241.461 162.662 236.349 130.981 235.065 119.917C234.692 116.259 234.942 110.912 238.92 118.789C242.899 126.665 257.163 150.143 263.798 160.898C265.036 161.792 267.495 162.662 267.427 158.999C267.36 155.335 262.243 127.451 259.692 113.967" stroke="#2C2A2A" stroke-width="10.5" stroke-linecap="round"/>
<path d="M209.431 132.44L213.331 164.364" stroke="#2C2A2A" stroke-width="10.5" stroke-linecap="round"/>
<circle cx="207.229" cy="118.736" r="4.91" transform="rotate(28.6909 207.229 118.736)" fill="#2C2A2A"/>
<path d="M137.808 123.679C144.317 137.819 158.179 165.266 161.557 161.933C164.935 158.601 164.621 143.319 164.041 136.094C164.104 134.401 165.008 131.96 168.122 135.737C171.236 139.513 176.621 153.34 178.925 159.782C180.04 161.687 182.319 164.229 182.507 159.152C182.696 154.074 184.864 127.629 185.924 115.042" stroke="#2C2A2A" stroke-width="10.5" stroke-linecap="round"/>
<path d="M298.866 113.387C298.297 130.993 296.813 167.31 295.429 171.733" stroke="#2C2A2A" stroke-width="10.5" stroke-linecap="round"/>
<circle cx="291.958" cy="189.909" r="4.54476" transform="rotate(28.6909 291.958 189.909)" fill="#2C2A2A"/>
<circle cx="222.256" cy="210.776" r="2.045" transform="rotate(28.6909 222.256 210.776)" fill="#2C2A2A"/>
<circle cx="222.256" cy="217.776" r="2.045" transform="rotate(28.6909 222.256 217.776)" fill="#2C2A2A"/>
<circle cx="221.724" cy="239.776" r="2.045" transform="rotate(28.6909 221.724 239.776)" fill="#2C2A2A"/>
<circle cx="221.724" cy="246.776" r="2.045" transform="rotate(28.6909 221.724 246.776)" fill="#2C2A2A"/>
</svg>
